<?xml version="1.0" encoding="UTF-8"?><svg id="Capa_2" xmlns="http://www.w3.org/2000/svg" viewBox="0 0 44.66 43.5"><defs><style>.cls-1{fill:#000;}.cls-1,.cls-2,.cls-3{stroke-width:0px;}.cls-2{fill:#ef788d;}.cls-3{fill:#fff;}</style></defs><g id="Capa_1-2"><path class="cls-3" d="M30.99,41.87c-.07-.15-.07-.2-.1-.23-.84-.97-1.67-1.95-2.52-2.91-.08-.09-.34-.11-.48-.07-3.04.94-6.12,1.1-9.23.48-4.03-.81-7.51-2.69-10.22-5.81-4.38-5.06-5.62-10.86-3.5-17.21C7.32,8.97,14.08,4.25,21.74,3.99c2.38-.08,4.72.25,6.95,1.11,6.67,2.59,10.76,7.36,11.84,14.49.48,3.18-.04,6.29-1.38,9.23-.37.82-.83,1.6-1.25,2.41.87,1.01,1.75,2.02,2.62,3.03.06-.03.09-.04.1-.06,2.21-3.08,3.53-6.51,3.92-10.28.19-1.84.14-3.68-.16-5.52-.74-4.55-2.75-8.46-5.99-11.73-3.43-3.46-7.58-5.56-12.39-6.36-3.25-.54-6.47-.38-9.64.48C7.64,3.15,1.45,10.31.25,18.52c-.36,2.47-.34,4.92.15,7.36.73,3.67,2.33,6.94,4.78,9.78,3.65,4.21,8.26,6.7,13.74,7.57,2.75.44,5.5.35,8.21-.27,1.29-.29,2.56-.72,3.86-1.09ZM26.75,23.46c-1.23,1.07-2.45,2.12-3.69,3.2,3.97,4.59,7.91,9.15,11.88,13.74,1.25-1.08,2.46-2.13,3.69-3.2-3.97-4.6-7.9-9.14-11.88-13.74Z"/><path class="cls-1" d="M30.99,41.87c-1.3.37-2.57.79-3.86,1.09-2.71.62-5.46.7-8.21.27-5.48-.87-10.09-3.36-13.74-7.57-2.46-2.84-4.05-6.1-4.78-9.78-.49-2.44-.51-4.89-.15-7.36C1.45,10.31,7.64,3.15,16.37.79c3.17-.86,6.39-1.02,9.64-.48,4.81.8,8.96,2.9,12.39,6.36,3.24,3.26,5.25,7.17,5.99,11.73.3,1.84.35,3.68.16,5.52-.4,3.77-1.71,7.2-3.92,10.28-.02.02-.05.03-.1.06-.87-1.01-1.75-2.02-2.62-3.03.42-.81.88-1.59,1.25-2.41,1.34-2.94,1.87-6.05,1.38-9.23-1.08-7.13-5.17-11.9-11.84-14.49-2.23-.86-4.57-1.19-6.95-1.11-7.66.26-14.42,4.98-16.8,12.12-2.12,6.35-.88,12.15,3.5,17.21,2.7,3.13,6.18,5,10.22,5.81,3.1.62,6.19.46,9.23-.48.14-.04.4-.02.48.07.86.96,1.69,1.94,2.52,2.91.03.03.03.07.1.23Z"/><path class="cls-1" d="M26.75,23.46c3.97,4.6,7.91,9.15,11.88,13.74-1.23,1.07-2.44,2.12-3.69,3.2-3.97-4.59-7.92-9.16-11.88-13.74,1.24-1.07,2.46-2.13,3.69-3.2Z"/><rect class="cls-2" x="16.84" y="16.44" width="7.3" height="7.3" transform="translate(-8.13 17.96) rotate(-40.17)"/></g></svg>